<svg xmlns="http://www.w3.org/2000/svg" width="1440" viewBox="0 0 1440 810" height="810" version="1.0"><path fill="#FF5757" d="M 1013.765625 576.269531 C 1002.582031 576.269531 993.515625 585.335938 993.515625 596.519531 C 993.515625 607.703125 1002.582031 616.769531 1013.765625 616.769531 C 1024.949219 616.769531 1034.015625 607.703125 1034.015625 596.519531 C 1034.015625 585.335938 1024.949219 576.269531 1013.765625 576.269531"/><g fill="#FFF"><g><g><path d="M 7.59375 -171.796875 L 55 -171.796875 C 67.269531 -171.796875 76.46875 -168.394531 82.59375 -161.59375 C 88.726562 -154.800781 91.863281 -144.738281 92 -131.40625 L 92.40625 -51 C 92.53125 -34.0625 89.59375 -21.328125 83.59375 -12.796875 C 77.59375 -4.265625 67.660156 0 53.796875 0 L 7.59375 0 Z M 48.203125 -30.40625 C 54.460938 -30.40625 57.59375 -33.46875 57.59375 -39.59375 L 57.59375 -128.203125 C 57.59375 -132.066406 57.289062 -134.960938 56.6875 -136.890625 C 56.09375 -138.828125 54.992188 -140.128906 53.390625 -140.796875 C 51.796875 -141.460938 49.332031 -141.796875 46 -141.796875 L 42.203125 -141.796875 L 42.203125 -30.40625 Z M 48.203125 -30.40625" transform="translate(470.91 398.164)"/></g></g></g><g fill="#FFF"><g><g><path d="M 6 0 L 6 -171.796875 L 39.203125 -171.796875 L 39.203125 0 Z M 6 0" transform="translate(569.508 398.164)"/></g></g></g><g fill="#FFF"><g><g><path d="M 7.59375 -171.796875 L 60.40625 -171.796875 C 68.800781 -171.796875 75.296875 -169.894531 79.890625 -166.09375 C 84.492188 -162.300781 87.59375 -156.96875 89.1875 -150.09375 C 90.789062 -143.226562 91.59375 -134.460938 91.59375 -123.796875 C 91.59375 -114.066406 90.328125 -106.46875 87.796875 -101 C 85.265625 -95.53125 80.863281 -91.726562 74.59375 -89.59375 C 79.800781 -88.53125 83.570312 -85.929688 85.90625 -81.796875 C 88.238281 -77.660156 89.40625 -72.0625 89.40625 -65 L 89 0 L 55.40625 0 L 55.40625 -67.203125 C 55.40625 -72.003906 54.46875 -75.070312 52.59375 -76.40625 C 50.726562 -77.738281 47.332031 -78.40625 42.40625 -78.40625 L 42.40625 0 L 7.59375 0 Z M 50.796875 -108.203125 C 55.597656 -108.203125 58 -113.398438 58 -123.796875 C 58 -128.328125 57.796875 -131.726562 57.390625 -134 C 56.992188 -136.269531 56.257812 -137.835938 55.1875 -138.703125 C 54.125 -139.566406 52.59375 -140 50.59375 -140 L 42.59375 -140 L 42.59375 -108.203125 Z M 50.796875 -108.203125" transform="translate(614.906 398.164)"/></g></g></g><g fill="#FFF"><g><g><path d="M 7.59375 0 L 7.59375 -171.796875 L 76.40625 -171.796875 L 76.40625 -138.59375 L 42.59375 -138.59375 L 42.59375 -105.203125 L 75 -105.203125 L 75 -72.796875 L 42.59375 -72.796875 L 42.59375 -33.40625 L 78.59375 -33.40625 L 78.59375 0 Z M 7.59375 0" transform="translate(710.304 398.164)"/></g></g></g><g fill="#FFF"><g><g><path d="M 22.40625 0 L 22.40625 -138.796875 L 2 -138.796875 L 2 -171.796875 L 77.203125 -171.796875 L 77.203125 -138.796875 L 56.796875 -138.796875 L 56.796875 0 Z M 22.40625 0" transform="translate(792.702 398.164)"/></g></g></g><g fill="#FFF"><g><g><path d="M 48.59375 1.59375 C 34.726562 1.59375 24.195312 -2.632812 17 -11.09375 C 9.800781 -19.5625 6.203125 -31.460938 6.203125 -46.796875 L 6.203125 -128.59375 C 6.203125 -143.394531 9.800781 -154.5625 17 -162.09375 C 24.195312 -169.632812 34.726562 -173.40625 48.59375 -173.40625 C 62.46875 -173.40625 73.003906 -169.632812 80.203125 -162.09375 C 87.398438 -154.5625 91 -143.394531 91 -128.59375 L 91 -46.796875 C 91 -31.328125 87.398438 -19.394531 80.203125 -11 C 73.003906 -2.601562 62.46875 1.59375 48.59375 1.59375 Z M 48.59375 -30 C 51.664062 -30 53.734375 -31.332031 54.796875 -34 C 55.867188 -36.664062 56.40625 -40.398438 56.40625 -45.203125 L 56.40625 -129.203125 C 56.40625 -132.929688 55.90625 -135.960938 54.90625 -138.296875 C 53.90625 -140.628906 51.867188 -141.796875 48.796875 -141.796875 C 43.066406 -141.796875 40.203125 -137.460938 40.203125 -128.796875 L 40.203125 -45 C 40.203125 -40.0625 40.800781 -36.328125 42 -33.796875 C 43.195312 -31.265625 45.394531 -30 48.59375 -30 Z M 48.59375 -30" transform="translate(871.9 398.164)"/></g></g></g><g fill="#FFF"><g><g><path d="M 1.09375 0 L 7.140625 -62.59375 L 28.34375 -62.59375 L 34.328125 0 L 22.453125 0 L 21.578125 -10.125 L 13.984375 -10.125 L 13.265625 0 Z M 14.9375 -20.109375 L 20.625 -20.109375 L 17.859375 -51.953125 L 17.265625 -51.953125 Z M 14.9375 -20.109375" transform="translate(470.597 500.515)"/></g></g></g><g fill="#FFF"><g><g><path d="M 17.703125 0.578125 C 12.648438 0.578125 8.8125 -0.960938 6.1875 -4.046875 C 3.570312 -7.128906 2.265625 -11.460938 2.265625 -17.046875 L 2.265625 -46.859375 C 2.265625 -52.253906 3.570312 -56.320312 6.1875 -59.0625 C 8.8125 -61.8125 12.648438 -63.1875 17.703125 -63.1875 C 22.753906 -63.1875 26.59375 -61.8125 29.21875 -59.0625 C 31.84375 -56.320312 33.15625 -52.253906 33.15625 -46.859375 L 33.15625 -17.046875 C 33.15625 -11.410156 31.84375 -7.0625 29.21875 -4 C 26.59375 -0.945312 22.753906 0.578125 17.703125 0.578125 Z M 17.703125 -10.9375 C 18.828125 -10.9375 19.582031 -11.421875 19.96875 -12.390625 C 20.351562 -13.359375 20.546875 -14.71875 20.546875 -16.46875 L 20.546875 -47.078125 C 20.546875 -48.441406 20.363281 -49.546875 20 -50.390625 C 19.632812 -51.242188 18.894531 -51.671875 17.78125 -51.671875 C 15.6875 -51.671875 14.640625 -50.09375 14.640625 -46.9375 L 14.640625 -16.390625 C 14.640625 -14.597656 14.859375 -13.238281 15.296875 -12.3125 C 15.734375 -11.394531 16.535156 -10.9375 17.703125 -10.9375 Z M 17.703125 -10.9375" transform="translate(470.562 602.515)"/></g></g></g><g fill="#FF5757"><g><g><path d="M 7.59375 -171.796875 L 53 -171.796875 C 66.726562 -171.796875 76.523438 -167.363281 82.390625 -158.5 C 88.265625 -149.632812 91.203125 -136.664062 91.203125 -119.59375 C 91.203125 -102.53125 88.597656 -89.664062 83.390625 -81 C 78.191406 -72.332031 68.863281 -68 55.40625 -68 L 41.40625 -68 L 41.40625 0 L 7.59375 0 Z M 43.40625 -99 C 47.53125 -99 50.5625 -99.765625 52.5 -101.296875 C 54.4375 -102.828125 55.703125 -105.023438 56.296875 -107.890625 C 56.898438 -110.765625 57.203125 -114.867188 57.203125 -120.203125 C 57.203125 -127.398438 56.398438 -132.597656 54.796875 -135.796875 C 53.203125 -138.992188 50.003906 -140.59375 45.203125 -140.59375 L 41.40625 -140.59375 L 41.40625 -99 Z M 43.40625 -99" transform="translate(515.334 605.5)"/></g></g></g><g fill="#FF5757"><g><g><path d="M 48.59375 1.59375 C 34.726562 1.59375 24.195312 -2.632812 17 -11.09375 C 9.800781 -19.5625 6.203125 -31.460938 6.203125 -46.796875 L 6.203125 -128.59375 C 6.203125 -143.394531 9.800781 -154.5625 17 -162.09375 C 24.195312 -169.632812 34.726562 -173.40625 48.59375 -173.40625 C 62.46875 -173.40625 73.003906 -169.632812 80.203125 -162.09375 C 87.398438 -154.5625 91 -143.394531 91 -128.59375 L 91 -46.796875 C 91 -31.328125 87.398438 -19.394531 80.203125 -11 C 73.003906 -2.601562 62.46875 1.59375 48.59375 1.59375 Z M 48.59375 -30 C 51.664062 -30 53.734375 -31.332031 54.796875 -34 C 55.867188 -36.664062 56.40625 -40.398438 56.40625 -45.203125 L 56.40625 -129.203125 C 56.40625 -132.929688 55.90625 -135.960938 54.90625 -138.296875 C 53.90625 -140.628906 51.867188 -141.796875 48.796875 -141.796875 C 43.066406 -141.796875 40.203125 -137.460938 40.203125 -128.796875 L 40.203125 -45 C 40.203125 -40.0625 40.800781 -36.328125 42 -33.796875 C 43.195312 -31.265625 45.394531 -30 48.59375 -30 Z M 48.59375 -30" transform="translate(609.732 605.5)"/></g></g></g><g fill="#FF5757"><g><g><path d="M 7.59375 0 L 7.59375 -171.796875 L 43 -171.796875 L 58.796875 -89.59375 L 58.796875 -171.796875 L 92 -171.796875 L 92 0 L 58.40625 0 L 41.203125 -86 L 41.203125 0 Z M 7.59375 0" transform="translate(706.93 605.5)"/></g></g></g><g fill="#FF5757"><g><g><path d="M 22.40625 0 L 22.40625 -138.796875 L 2 -138.796875 L 2 -171.796875 L 77.203125 -171.796875 L 77.203125 -138.796875 L 56.796875 -138.796875 L 56.796875 0 Z M 22.40625 0" transform="translate(806.527 605.5)"/></g></g></g><g fill="#FF5757"><g><g><path d="M 48.59375 1.59375 C 34.726562 1.59375 24.195312 -2.632812 17 -11.09375 C 9.800781 -19.5625 6.203125 -31.460938 6.203125 -46.796875 L 6.203125 -128.59375 C 6.203125 -143.394531 9.800781 -154.5625 17 -162.09375 C 24.195312 -169.632812 34.726562 -173.40625 48.59375 -173.40625 C 62.46875 -173.40625 73.003906 -169.632812 80.203125 -162.09375 C 87.398438 -154.5625 91 -143.394531 91 -128.59375 L 91 -46.796875 C 91 -31.328125 87.398438 -19.394531 80.203125 -11 C 73.003906 -2.601562 62.46875 1.59375 48.59375 1.59375 Z M 48.59375 -30 C 51.664062 -30 53.734375 -31.332031 54.796875 -34 C 55.867188 -36.664062 56.40625 -40.398438 56.40625 -45.203125 L 56.40625 -129.203125 C 56.40625 -132.929688 55.90625 -135.960938 54.90625 -138.296875 C 53.90625 -140.628906 51.867188 -141.796875 48.796875 -141.796875 C 43.066406 -141.796875 40.203125 -137.460938 40.203125 -128.796875 L 40.203125 -45 C 40.203125 -40.0625 40.800781 -36.328125 42 -33.796875 C 43.195312 -31.265625 45.394531 -30 48.59375 -30 Z M 48.59375 -30" transform="translate(885.725 605.5)"/></g></g></g></svg>