<svg xmlns="http://www.w3.org/2000/svg" width="1440" viewBox="0 0 1440 810" height="810" version="1.0"><path fill="#FF5757" d="M 1292.902344 729 C 1275.917969 729 1262.152344 742.765625 1262.152344 759.75 C 1262.152344 776.734375 1275.917969 790.5 1292.902344 790.5 C 1309.882812 790.5 1323.652344 776.734375 1323.652344 759.75 C 1323.652344 742.765625 1309.882812 729 1292.902344 729"/><g><g><g><path d="M 14.578125 -329.453125 L 105.46875 -329.453125 C 128.988281 -329.453125 146.628906 -322.929688 158.390625 -309.890625 C 170.160156 -296.847656 176.171875 -277.546875 176.421875 -251.984375 L 177.1875 -97.796875 C 177.445312 -65.328125 171.820312 -40.910156 160.3125 -24.546875 C 148.8125 -8.179688 129.765625 0 103.171875 0 L 14.578125 0 Z M 92.4375 -58.296875 C 104.445312 -58.296875 110.453125 -64.175781 110.453125 -75.9375 L 110.453125 -245.84375 C 110.453125 -253.257812 109.875 -258.820312 108.71875 -262.53125 C 107.570312 -266.238281 105.460938 -268.726562 102.390625 -270 C 99.328125 -271.28125 94.601562 -271.921875 88.21875 -271.921875 L 80.921875 -271.921875 L 80.921875 -58.296875 Z M 92.4375 -58.296875" transform="translate(271.46 410.22)"/></g></g></g><g><g><g><path d="M 11.5 0 L 11.5 -329.453125 L 75.171875 -329.453125 L 75.171875 0 Z M 11.5 0" transform="translate(460.537 410.22)"/></g></g></g><g><g><g><path d="M 14.578125 -329.453125 L 115.828125 -329.453125 C 131.929688 -329.453125 144.394531 -325.804688 153.21875 -318.515625 C 162.039062 -311.234375 167.984375 -301.007812 171.046875 -287.84375 C 174.117188 -274.675781 175.65625 -257.863281 175.65625 -237.40625 C 175.65625 -218.738281 173.222656 -204.160156 168.359375 -193.671875 C 163.503906 -183.191406 155.070312 -175.910156 143.0625 -171.828125 C 153.03125 -169.773438 160.25 -164.785156 164.71875 -156.859375 C 169.195312 -148.929688 171.4375 -138.191406 171.4375 -124.640625 L 170.671875 0 L 106.234375 0 L 106.234375 -128.859375 C 106.234375 -138.066406 104.441406 -143.945312 100.859375 -146.5 C 97.285156 -149.0625 90.769531 -150.34375 81.3125 -150.34375 L 81.3125 0 L 14.578125 0 Z M 97.421875 -207.484375 C 106.617188 -207.484375 111.21875 -217.457031 111.21875 -237.40625 C 111.21875 -246.101562 110.832031 -252.625 110.0625 -256.96875 C 109.300781 -261.3125 107.894531 -264.3125 105.84375 -265.96875 C 103.800781 -267.632812 100.863281 -268.46875 97.03125 -268.46875 L 81.6875 -268.46875 L 81.6875 -207.484375 Z M 97.421875 -207.484375" transform="translate(547.597 410.22)"/></g></g></g><g><g><g><path d="M 14.578125 0 L 14.578125 -329.453125 L 146.515625 -329.453125 L 146.515625 -265.78125 L 81.6875 -265.78125 L 81.6875 -201.734375 L 143.828125 -201.734375 L 143.828125 -139.609375 L 81.6875 -139.609375 L 81.6875 -64.046875 L 150.734375 -64.046875 L 150.734375 0 Z M 14.578125 0" transform="translate(730.537 410.22)"/></g></g></g><g><g><g><path d="M 42.953125 0 L 42.953125 -266.171875 L 3.828125 -266.171875 L 3.828125 -329.453125 L 148.046875 -329.453125 L 148.046875 -266.171875 L 108.921875 -266.171875 L 108.921875 0 Z M 42.953125 0" transform="translate(888.548 410.22)"/></g></g></g><g><g><g><path d="M 93.203125 3.0625 C 66.609375 3.0625 46.40625 -5.050781 32.59375 -21.28125 C 18.789062 -37.519531 11.890625 -60.34375 11.890625 -89.75 L 11.890625 -246.609375 C 11.890625 -274.992188 18.789062 -296.40625 32.59375 -310.84375 C 46.40625 -325.289062 66.609375 -332.515625 93.203125 -332.515625 C 119.785156 -332.515625 139.976562 -325.289062 153.78125 -310.84375 C 167.59375 -296.40625 174.5 -274.992188 174.5 -246.609375 L 174.5 -89.75 C 174.5 -60.082031 167.59375 -37.195312 153.78125 -21.09375 C 139.976562 -4.988281 119.785156 3.0625 93.203125 3.0625 Z M 93.203125 -57.53125 C 99.078125 -57.53125 103.035156 -60.085938 105.078125 -65.203125 C 107.128906 -70.316406 108.15625 -77.472656 108.15625 -86.671875 L 108.15625 -247.765625 C 108.15625 -254.921875 107.195312 -260.734375 105.28125 -265.203125 C 103.363281 -269.679688 99.460938 -271.921875 93.578125 -271.921875 C 82.585938 -271.921875 77.09375 -263.613281 77.09375 -247 L 77.09375 -86.296875 C 77.09375 -76.835938 78.242188 -69.675781 80.546875 -64.8125 C 82.847656 -59.957031 87.066406 -57.53125 93.203125 -57.53125 Z M 93.203125 -57.53125" transform="translate(1040.423 410.22)"/></g></g></g><g><g><g><path d="M 2.140625 0 L 13.96875 -122.453125 L 55.453125 -122.453125 L 67.140625 0 L 43.90625 0 L 42.1875 -19.8125 L 27.375 -19.8125 L 25.9375 0 Z M 29.21875 -39.34375 L 40.34375 -39.34375 L 34.921875 -101.640625 L 33.78125 -101.640625 Z M 29.21875 -39.34375" transform="translate(265.543 587.142)"/></g></g></g><g><g><g><path d="M 34.640625 1.140625 C 24.753906 1.140625 17.242188 -1.875 12.109375 -7.90625 C 6.984375 -13.945312 4.421875 -22.429688 4.421875 -33.359375 L 4.421875 -91.65625 C 4.421875 -102.207031 6.984375 -110.164062 12.109375 -115.53125 C 17.242188 -120.90625 24.753906 -123.59375 34.640625 -123.59375 C 44.523438 -123.59375 52.03125 -120.90625 57.15625 -115.53125 C 62.289062 -110.164062 64.859375 -102.207031 64.859375 -91.65625 L 64.859375 -33.359375 C 64.859375 -22.335938 62.289062 -13.832031 57.15625 -7.84375 C 52.03125 -1.851562 44.523438 1.140625 34.640625 1.140625 Z M 34.640625 -21.375 C 36.828125 -21.375 38.300781 -22.320312 39.0625 -24.21875 C 39.820312 -26.125 40.203125 -28.789062 40.203125 -32.21875 L 40.203125 -92.078125 C 40.203125 -94.742188 39.84375 -96.90625 39.125 -98.5625 C 38.414062 -100.226562 36.96875 -101.0625 34.78125 -101.0625 C 30.695312 -101.0625 28.65625 -97.972656 28.65625 -91.796875 L 28.65625 -32.078125 C 28.65625 -28.554688 29.082031 -25.890625 29.9375 -24.078125 C 30.789062 -22.273438 32.359375 -21.375 34.640625 -21.375 Z M 34.640625 -21.375" transform="translate(265.474 786.66)"/></g></g></g><g fill="#FF5757"><g><g><path d="M 14.59375 -329.859375 L 101.765625 -329.859375 C 128.128906 -329.859375 146.941406 -321.34375 158.203125 -304.3125 C 169.472656 -287.289062 175.109375 -262.394531 175.109375 -229.625 C 175.109375 -196.863281 170.113281 -172.160156 160.125 -155.515625 C 150.144531 -138.878906 132.226562 -130.5625 106.375 -130.5625 L 79.484375 -130.5625 L 79.484375 0 L 14.59375 0 Z M 83.328125 -190.078125 C 91.265625 -190.078125 97.085938 -191.546875 100.796875 -194.484375 C 104.515625 -197.429688 106.945312 -201.65625 108.09375 -207.15625 C 109.25 -212.664062 109.828125 -220.539062 109.828125 -230.78125 C 109.828125 -244.601562 108.289062 -254.585938 105.21875 -260.734375 C 102.144531 -266.878906 96 -269.953125 86.78125 -269.953125 L 79.484375 -269.953125 L 79.484375 -190.078125 Z M 83.328125 -190.078125" transform="translate(345.12 790.35)"/></g></g></g><g fill="#FF5757"><g><g><path d="M 93.3125 3.078125 C 66.6875 3.078125 46.460938 -5.050781 32.640625 -21.3125 C 18.816406 -37.570312 11.90625 -60.421875 11.90625 -89.859375 L 11.90625 -246.90625 C 11.90625 -275.320312 18.816406 -296.757812 32.640625 -311.21875 C 46.460938 -325.6875 66.6875 -332.921875 93.3125 -332.921875 C 119.9375 -332.921875 140.160156 -325.6875 153.984375 -311.21875 C 167.804688 -296.757812 174.71875 -275.320312 174.71875 -246.90625 L 174.71875 -89.859375 C 174.71875 -60.160156 167.804688 -37.242188 153.984375 -21.109375 C 140.160156 -4.984375 119.9375 3.078125 93.3125 3.078125 Z M 93.3125 -57.59375 C 99.195312 -57.59375 103.160156 -60.148438 105.203125 -65.265625 C 107.253906 -70.390625 108.28125 -77.5625 108.28125 -86.78125 L 108.28125 -248.0625 C 108.28125 -255.226562 107.320312 -261.050781 105.40625 -265.53125 C 103.488281 -270.007812 99.585938 -272.25 93.703125 -272.25 C 82.691406 -272.25 77.1875 -263.929688 77.1875 -247.296875 L 77.1875 -86.40625 C 77.1875 -76.925781 78.335938 -69.753906 80.640625 -64.890625 C 82.941406 -60.023438 87.164062 -57.59375 93.3125 -57.59375 Z M 93.3125 -57.59375" transform="translate(526.368 790.35)"/></g></g></g><g fill="#FF5757"><g><g><path d="M 14.59375 0 L 14.59375 -329.859375 L 82.5625 -329.859375 L 112.890625 -172.03125 L 112.890625 -329.859375 L 176.640625 -329.859375 L 176.640625 0 L 112.125 0 L 79.109375 -165.125 L 79.109375 0 Z M 14.59375 0" transform="translate(712.991 790.35)"/></g></g></g><g fill="#FF5757"><g><g><path d="M 43.015625 0 L 43.015625 -266.5 L 3.84375 -266.5 L 3.84375 -329.859375 L 148.21875 -329.859375 L 148.21875 -266.5 L 109.0625 -266.5 L 109.0625 0 Z M 43.015625 0" transform="translate(904.223 790.35)"/></g></g></g><g fill="#FF5757"><g><g><path d="M 93.3125 3.078125 C 66.6875 3.078125 46.460938 -5.050781 32.640625 -21.3125 C 18.816406 -37.570312 11.90625 -60.421875 11.90625 -89.859375 L 11.90625 -246.90625 C 11.90625 -275.320312 18.816406 -296.757812 32.640625 -311.21875 C 46.460938 -325.6875 66.6875 -332.921875 93.3125 -332.921875 C 119.9375 -332.921875 140.160156 -325.6875 153.984375 -311.21875 C 167.804688 -296.757812 174.71875 -275.320312 174.71875 -246.90625 L 174.71875 -89.859375 C 174.71875 -60.160156 167.804688 -37.242188 153.984375 -21.109375 C 140.160156 -4.984375 119.9375 3.078125 93.3125 3.078125 Z M 93.3125 -57.59375 C 99.195312 -57.59375 103.160156 -60.148438 105.203125 -65.265625 C 107.253906 -70.390625 108.28125 -77.5625 108.28125 -86.78125 L 108.28125 -248.0625 C 108.28125 -255.226562 107.320312 -261.050781 105.40625 -265.53125 C 103.488281 -270.007812 99.585938 -272.25 93.703125 -272.25 C 82.691406 -272.25 77.1875 -263.929688 77.1875 -247.296875 L 77.1875 -86.40625 C 77.1875 -76.925781 78.335938 -69.753906 80.640625 -64.890625 C 82.941406 -60.023438 87.164062 -57.59375 93.3125 -57.59375 Z M 93.3125 -57.59375" transform="translate(1056.287 790.35)"/></g></g></g></svg>